# xmcd CD database file
#
# Track frame offsets:
#	150
#	12457
#	24930
#	35600
#	49015
#	60815
#	72985
#	97055
#	110455
#	123037
#	140737
#	153380
#
# Disc length: 2155 seconds
#
# Revision: 6
# Processed by: cddbd v1.5.2PL0 Copyright (c) Steve Scherf et al.
# Submitted via: CDex 1.50
#
DISCID=9a08690c
DTITLE=Johnny Cash - I Walk the Line CD02
DYEAR=2003
DGENRE=Country
TTITLE0=I Walk the Line (1964)
TTITLE1=Folsom Prison Blues (1964)
TTITLE2=In the Jailhouse Now (1962)
TTITLE3=Tennessee Flat-Top Box (1961)
TTITLE4=What is Truth (1970)
TTITLE5=Understand Your Man (1964)
TTITLE6=Highway Patrolman (1983)
TTITLE7=If I Were a Carpenter (1970) (Johnny Cash and June Carter)
TTITLE8=The One on the Right is on the Left (1966)
TTITLE9=The Greatest Cowboy of Them All (1979) 
TTITLE10=The Last Gunfighter Ballad (1976)
TTITLE11=The Rebel - Johnny Yuma (1961)
EXTD=Track dates supplied. YEAR: 2003
EXTT0=
EXTT1=
EXTT2=
EXTT3=
EXTT4=
EXTT5=
EXTT6=
EXTT7=
EXTT8=
EXTT9=
EXTT10=
EXTT11=
PLAYORDER=
